HIERARCHY
ROOT Hips
{
	OFFSET 0.00000 0.00000 0.00000
	CHANNELS 6 Xposition Yposition Zposition Zrotation Yrotation Xrotation 
	JOINT LHipJoint
	{
		OFFSET 0 0 0
		CHANNELS 3 Zrotation Yrotation Xrotation
		JOINT LeftUpLeg
		{
			OFFSET 2.36090 -1.39315 1.24752
			CHANNELS 3 Zrotation Yrotation Xrotation
			JOINT LeftLeg
			{
				OFFSET 2.06810 -5.68207 0.00000
				CHANNELS 3 Zrotation Yrotation Xrotation
				JOINT LeftFoot
				{
					OFFSET 2.46631 -6.77613 0.00000
					CHANNELS 3 Zrotation Yrotation Xrotation
					JOINT LeftToeBase
					{
						OFFSET 0.26031 -0.71520 1.99545
						CHANNELS 3 Zrotation Yrotation Xrotation
						End Site
						{
							OFFSET 0.00000 -0.00000 1.05957
						}
					}
				}
			}
		}
	}
	JOINT RHipJoint
	{
		OFFSET 0 0 0
		CHANNELS 3 Zrotation Yrotation Xrotation
		JOINT RightUpLeg
		{
			OFFSET -2.25243 -1.39315 1.24752
			CHANNELS 3 Zrotation Yrotation Xrotation
			JOINT RightLeg
			{
				OFFSET -2.17343 -5.97145 0.00000
				CHANNELS 3 Zrotation Yrotation Xrotation
				JOINT RightFoot
				{
					OFFSET -2.52372 -6.93386 0.00000
					CHANNELS 3 Zrotation Yrotation Xrotation
					JOINT RightToeBase
					{
						OFFSET -0.22538 -0.61923 2.11447
						CHANNELS 3 Zrotation Yrotation Xrotation
						End Site
						{
							OFFSET -0.00000 -0.00000 1.10506
						}
					}
				}
			}
		}
	}
	JOINT LowerBack
	{
		OFFSET 0 0 0
		CHANNELS 3 Zrotation Yrotation Xrotation
		JOINT Spine
		{
			OFFSET 0.01594 2.13103 0.08007
			CHANNELS 3 Zrotation Yrotation Xrotation
			JOINT Spine1
			{
				OFFSET 0.01393 2.09723 0.18338
				CHANNELS 3 Zrotation Yrotation Xrotation
				JOINT Neck
				{
					OFFSET 0 0 0
					CHANNELS 3 Zrotation Yrotation Xrotation
					JOINT Neck1
					{
						OFFSET 0.05351 1.38915 0.32494
						CHANNELS 3 Zrotation Yrotation Xrotation
						JOINT Head
						{
							OFFSET 0.00711 1.45992 -0.21666
							CHANNELS 3 Zrotation Yrotation Xrotation
							End Site
							{
								OFFSET -0.00433 1.47702 -0.11056
							}
						}
					}
				}
				JOINT LeftShoulder
				{
					OFFSET 0 0 0
					CHANNELS 3 Zrotation Yrotation Xrotation
					JOINT LeftArm
					{
						OFFSET 2.87198 0.92249 0.11132
						CHANNELS 3 Zrotation Yrotation Xrotation
						JOINT LeftForeArm
						{
							OFFSET 5.52731 -0.00000 0.00000
							CHANNELS 3 Zrotation Yrotation Xrotation
							JOINT LeftHand
							{
								OFFSET 3.11059 -0.00000 0.00000
								CHANNELS 3 Zrotation Yrotation Xrotation
								JOINT LeftFingerBase
								{
									OFFSET 0 0 0
									CHANNELS 3 Zrotation Yrotation Xrotation
									JOINT LeftHandIndex1
									{
										OFFSET 0.41963 -0.00000 0.00000
										CHANNELS 3 Zrotation Yrotation Xrotation
										End Site
										{
											OFFSET 0.33831 -0.00000 0.00000
										}
									}
								}
								JOINT LThumb
								{
									OFFSET 0 0 0
									CHANNELS 3 Zrotation Yrotation Xrotation
									End Site
									{
										OFFSET 0.34348 -0.00000 0.34348
									}
								}
							}
						}
					}
				}
				JOINT RightShoulder
				{
					OFFSET 0 0 0
					CHANNELS 3 Zrotation Yrotation Xrotation
					JOINT RightArm
					{
						OFFSET -2.94710 0.68072 0.32187
						CHANNELS 3 Zrotation Yrotation Xrotation
						JOINT RightForeArm
						{
							OFFSET -5.25396 -0.00000 -0.00000
							CHANNELS 3 Zrotation Yrotation Xrotation
							JOINT RightHand
							{
								OFFSET -3.10567 -0.00000 0.00000
								CHANNELS 3 Zrotation Yrotation Xrotation
								JOINT RightFingerBase
								{
									OFFSET 0 0 0
									CHANNELS 3 Zrotation Yrotation Xrotation
									JOINT RightHandIndex1
									{
										OFFSET -0.49868 -0.00000 0.00000
										CHANNELS 3 Zrotation Yrotation Xrotation
										End Site
										{
											OFFSET -0.40204 -0.00000 0.00000
										}
									}
								}
								JOINT RThumb
								{
									OFFSET 0 0 0
									CHANNELS 3 Zrotation Yrotation Xrotation
									End Site
									{
										OFFSET -0.40818 -0.00000 0.40818
									}
								}
							}
						}
					}
				}
			}
		}
	}
}
MOTION
Frames: 15
Frame Time: .0083333
-0.9929 15.8545 14.5326 0 0 0 0 0 0 -21 0 0 0 0 0 0 0 0 0 0 0 0 0 0 21 0 0 0 0 0 0 0 0 0 0 0 0 0 0 0 0 0 0 0 0 0 0 -16 0 0 21 0 0 11 0 0 0 -8 0 0 0 0 0 0 0 0 0 0 0 0 0 0 0 0 0 0 0 0 8 0 0 0 0 0 0 0 0 0 0 0 0 0 0 0 0 0
-0.9929 15.8545 14.5326 -0.8323 -2.5708 20.0500 0.0000 0.0000 0.0000 -16.7797 -19.8799 -30.5873 1.5125 7.7669 22.0083 0.0679 -4.9525 -5.4105 0.7456 -5.5157 -15.3855 0.0000 0.0000 0.0000 15.1895 22.1060 -33.2293 -9.8452 -17.3219 58.9696 -0.5019 1.0282 -13.0661 -0.5604 4.7950 -13.3248 -10.4074 -1.7640 -13.3573 -2.9446 -1.0339 -6.3078 2.6047 -0.3583 0.8955 4.4936 0.6210 -18.2931 6.4046 -1.8271 18.3761 1.2106 0.1658 8.8440 0.0000 -0.0000 0.0000 -73.8040 0.6598 34.5231 21.3686 -32.2560 -6.2455 -0.0000 0.0000 -43.5295 23.7081 -2.5395 -1.1147 -7.1250 0.0000 -0.0000 -2.2124 27.2048 0.9569 0.0000 -0.0000 0.0000 86.2434 -24.0527 26.8789 -17.4953 27.5061 -4.3136 0.0000 -0.0000 -17.8935 -14.6644 -20.7267 5.2912 7.1250 -0.0000 -0.0000 13.9310 -50.8170 -2.0306
-0.9931 15.8473 14.4805 -0.7518 -2.7963 19.9956 0.0000 0.0000 0.0000 -16.8618 -19.7069 -30.8127 1.5183 7.7809 22.0506 0.0611 -5.0172 -5.2665 0.7420 -5.5025 -15.3477 0.0000 0.0000 0.0000 15.4337 21.9651 -32.1906 -9.6865 -17.2297 58.4353 -0.4869 1.2866 -12.7982 -0.5586 4.7875 -13.3034 -10.2052 -1.5384 -13.5626 -3.1391 -0.7300 -6.3169 2.3293 -0.2162 0.9587 4.4263 0.4870 -18.4067 6.4382 -2.0179 18.4896 1.2104 0.0820 8.9070 -0.0000 0.0000 0.0000 -73.6546 0.9485 34.1867 20.9196 -31.7343 -6.0076 -0.0000 0.0000 -43.2208 23.5278 -2.4904 -1.0838 -7.1250 0.0000 -0.0000 -2.3512 27.2619 1.0138 -0.0000 0.0000 0.0000 86.2434 -24.0527 26.8789 -17.4953 27.5061 -4.3136 0.0000 -0.0000 -17.8935 -14.6644 -20.7267 5.2912 7.1250 -0.0000 -0.0000 13.9310 -50.8170 -2.0306
-0.9952 15.8407 14.4250 -0.6460 -2.9704 19.9571 0.0000 0.0000 0.0000 -16.9453 -19.5778 -31.0542 1.5215 7.7888 22.0745 0.0531 -5.0943 -5.0998 0.7391 -5.4921 -15.3177 0.0000 0.0000 0.0000 15.6666 21.7665 -31.1333 -9.4685 -17.0999 57.6967 -0.4627 1.4662 -12.4243 -0.5680 4.8266 -13.4147 -10.0441 -1.3419 -13.6925 -3.3083 -0.4755 -6.3804 2.0978 -0.0922 0.9321 4.3114 0.3769 -18.4634 6.5159 -2.1689 18.6191 1.2379 0.0180 8.9659 -0.0000 0.0000 0.0000 -73.5369 1.3411 33.8264 20.4564 -31.1883 -5.7658 -0.0000 0.0000 -42.9906 23.3876 -2.6908 -1.1632 -7.1250 0.0000 -0.0000 -2.4569 27.0465 1.0719 -0.0000 0.0000 0.0000 86.2434 -24.0527 26.8789 -17.4953 27.5061 -4.3136 0.0000 -0.0000 -17.8935 -14.6644 -20.7267 5.2912 7.1250 -0.0000 -0.0000 13.9310 -50.8170 -2.0306
-0.9966 15.8341 14.3701 -0.5580 -3.1660 19.9022 0.0000 0.0000 0.0000 -16.9852 -19.5434 -31.2520 1.5272 7.8028 22.1166 0.0484 -5.0170 -4.9406 0.7460 -5.5172 -15.3897 0.0000 0.0000 0.0000 15.8829 21.5895 -30.0620 -9.2268 -16.9515 56.8714 -0.4432 1.6224 -12.1175 -0.5695 4.8329 -13.4326 -9.8363 -1.1564 -13.8561 -3.4317 -0.2355 -6.4131 1.8869 0.0211 0.9615 4.1699 0.2924 -18.5550 6.5226 -2.2637 18.7529 1.2529 -0.0288 9.0305 0.0000 0.0000 0.0000 -73.4954 1.7565 33.4248 19.9867 -30.6263 -5.5246 -0.0000 0.0000 -42.9977 23.5612 -2.7384 -1.1935 -7.1250 0.0000 -0.0000 -2.3236 26.9911 1.0167 0.0000 0.0000 0.0000 86.4344 -23.0442 27.8986 -17.5226 27.5415 -4.3262 0.0000 -0.0000 -17.1816 -15.3375 -20.3114 5.4385 7.1250 -0.0000 -0.0000 13.1210 -50.5136 -1.8099
-0.9984 15.8260 14.3146 -0.4684 -3.3489 19.8497 0.0000 0.0000 0.0000 -17.0394 -19.4540 -31.4894 1.5353 7.8224 22.1759 0.0420 -5.0289 -4.7758 0.7489 -5.5276 -15.4197 0.0000 0.0000 0.0000 16.1020 21.3886 -28.9704 -8.9654 -16.7854 55.9702 -0.4266 1.7860 -11.8472 -0.6085 4.9930 -13.8886 -9.6230 -0.9614 -13.9969 -3.5770 0.0122 -6.4566 1.6514 0.1389 0.9690 4.0431 0.1949 -18.6375 6.5497 -2.3844 18.8830 1.2689 -0.0846 9.0934 0.0000 0.0000 0.0000 -73.4120 2.1629 33.0071 19.5225 -30.0627 -5.2900 -0.0000 0.0000 -42.8984 23.6022 -2.7659 -1.2078 -7.1250 0.0000 -0.0000 -2.2922 26.9602 1.0046 0.0000 0.0000 0.0000 86.4631 -22.6554 28.2099 -17.5605 27.5907 -4.3437 0.0000 -0.0000 -16.9968 -15.2944 -20.4768 5.4646 7.1250 -0.0000 -0.0000 13.2262 -50.6711 -1.8766
-1.0006 15.8170 14.2582 -0.3808 -3.5231 19.7941 0.0000 0.0000 0.0000 -17.0845 -19.3743 -31.7437 1.5466 7.8499 22.2590 0.0357 -5.0425 -4.6094 0.7525 -5.5407 -15.4574 0.0000 0.0000 0.0000 16.3128 21.1774 -27.8609 -8.6734 -16.5929 54.9538 -0.4177 1.9303 -11.6916 -0.6950 5.3293 -14.8504 -9.3957 -0.7698 -14.1214 -3.7114 0.2507 -6.5031 1.4190 0.2524 0.9685 3.9114 0.1031 -18.7152 6.5602 -2.4910 19.0094 1.2816 -0.1364 9.1538 0.0000 -0.0000 0.0000 -73.3455 2.5783 32.5477 19.0420 -29.4709 -5.0515 -0.0000 0.0000 -42.8318 23.6482 -2.7704 -1.2125 -7.1250 0.0000 -0.0000 -2.2569 26.9543 0.9894 0.0000 -0.0000 0.0000 86.4731 -22.2499 28.5934 -17.5302 27.5515 -4.3298 0.0000 -0.0000 -16.6321 -15.5048 -20.1370 5.4555 7.1250 -0.0000 -0.0000 12.8939 -50.3670 -1.7306
-1.0033 15.8069 14.2000 -0.2966 -3.6911 19.7348 0.0000 0.0000 0.0000 -17.1138 -19.3084 -32.0210 1.5624 7.8880 22.3744 0.0296 -5.0525 -4.4442 0.7569 -5.5562 -15.5021 0.0000 0.0000 0.0000 16.5152 20.9673 -26.7488 -8.3602 -16.3779 53.8500 -0.4210 2.0412 -11.7197 -0.8512 5.8840 -16.4482 -9.1544 -0.5787 -14.2252 -3.8367 0.4834 -6.5499 1.1877 0.3630 0.9599 3.7763 0.0156 -18.7898 6.5583 -2.5868 19.1265 1.2919 -0.1852 9.2101 -0.0000 0.0000 0.0000 -73.2915 2.9928 32.0460 18.5480 -28.8532 -4.8108 -0.0000 0.0000 -42.7863 23.7113 -2.7092 -1.1893 -7.1250 0.0000 -0.0000 -2.2089 27.0196 0.9650 -0.0000 0.0000 0.0000 86.4713 -21.8012 28.9460 -17.5523 27.5801 -4.3400 0.0000 -0.0000 -16.3650 -15.5304 -20.2078 5.4832 7.1250 -0.0000 -0.0000 12.8960 -50.4415 -1.7548
-1.0067 15.7959 14.1401 -0.2141 -3.8520 19.6721 0.0000 0.0000 0.0000 -17.1276 -19.2605 -32.3128 1.5808 7.9322 22.5082 0.0237 -5.0518 -4.2740 0.7612 -5.5719 -15.5473 0.0000 0.0000 0.0000 16.7096 20.7521 -25.6304 -8.0207 -16.1344 52.6371 -0.4396 2.1144 -11.9716 -1.0902 6.6356 -18.6402 -8.9042 -0.3894 -14.3057 -3.9517 0.7092 -6.5954 0.9614 0.4704 0.9437 3.6398 -0.0675 -18.8676 6.5418 -2.6717 19.2348 1.2987 -0.2311 9.2637 -0.0000 -0.0000 0.0000 -73.2532 3.4015 31.4958 18.0421 -28.2110 -4.5691 -0.0000 0.0000 -42.7446 23.7579 -2.5885 -1.1389 -7.1250 0.0000 -0.0000 -2.1739 27.1502 0.9430 -0.0000 -0.0000 0.0000 86.4558 -21.3141 29.3153 -17.5494 27.5763 -4.3386 0.0000 -0.0000 -16.0524 -15.5990 -20.0481 5.4670 7.1250 -0.0000 -0.0000 12.7702 -50.2933 -1.6901
-1.0108 15.7843 14.0792 -0.1364 -4.0121 19.6070 0.0000 0.0000 0.0000 -17.1243 -19.2296 -32.6059 1.6002 7.9782 22.6480 0.0183 -5.0292 -4.1009 0.7660 -5.5889 -15.5963 0.0000 0.0000 0.0000 16.8975 20.5380 -24.5033 -7.6559 -15.8602 51.3135 -0.4781 2.1578 -12.4955 -1.3963 7.4755 -21.1321 -8.6440 -0.2018 -14.3806 -4.0543 0.9305 -6.6379 0.7420 0.5752 0.9307 3.5008 -0.1433 -18.9376 6.5163 -2.7424 19.3345 1.3045 -0.2721 9.3125 -0.0000 0.0000 0.0000 -73.2346 3.8037 30.8870 17.5192 -27.5371 -4.3246 -0.0000 0.0000 -42.6833 23.7895 -2.4345 -1.0727 -7.1250 0.0000 -0.0000 -2.1507 27.3178 0.9244 -0.0000 0.0000 0.0000 86.4283 -20.7935 29.6919 -17.5449 27.5705 -4.3365 0.0000 -0.0000 -15.7076 -15.6827 -19.9035 5.4598 7.1250 -0.0000 -0.0000 12.6360 -50.1623 -1.6307
-1.0153 15.7725 14.0169 -0.0623 -4.1726 19.5348 0.0000 0.0000 0.0000 -17.1064 -19.2199 -32.8847 1.6184 8.0214 22.7791 0.0135 -4.9734 -3.9206 0.7718 -5.6096 -15.6557 0.0000 0.0000 0.0000 17.0759 20.3119 -23.3785 -7.2688 -15.5541 49.8837 -0.5404 2.1472 -13.3144 -1.7157 8.2469 -23.4666 -8.3685 -0.0132 -14.4353 -4.1480 1.1486 -6.6755 0.5232 0.6782 0.9152 3.3521 -0.2146 -19.0151 6.4854 -2.8022 19.4271 1.3114 -0.3096 9.3601 0.0000 -0.0000 0.0000 -73.2298 4.2044 30.2348 17.0002 -26.8580 -4.0874 -0.0000 0.0000 -42.6077 23.8131 -2.2566 -0.9955 -7.1250 0.0000 -0.0000 -2.1338 27.5117 0.9074 0.0000 -0.0000 0.0000 86.3915 -20.2294 30.0814 -17.5367 27.5598 -4.3327 0.0000 -0.0000 -15.3617 -15.8024 -19.7977 5.4755 7.1250 -0.0000 -0.0000 12.4823 -50.0755 -1.5834
-1.0201 15.7612 13.9537 0.0081 -4.3334 19.4556 0.0000 0.0000 0.0000 -17.0764 -19.2302 -33.1368 1.6336 8.0571 22.8877 0.0094 -4.8818 -3.7317 0.7795 -5.6369 -15.7345 0.0000 0.0000 0.0000 17.2433 20.0698 -22.2686 -6.8627 -15.2152 48.3533 -0.6265 2.0825 -14.3855 -1.9818 8.8281 -25.2590 -8.0752 0.1748 -14.4725 -4.2331 1.3614 -6.7121 0.3025 0.7784 0.8948 3.2022 -0.2791 -19.0908 6.4413 -2.8485 19.5185 1.3156 -0.3426 9.4065 -0.0000 0.0000 0.0000 -73.2392 4.6225 29.5498 16.4956 -26.1880 -3.8621 -0.0000 0.0000 -42.5249 23.8539 -2.0770 -0.9181 -7.1250 0.0000 -0.0000 -2.1038 27.7071 0.8850 -0.0000 0.0000 0.0000 86.3485 -19.6313 30.4793 -17.5208 27.5392 -4.3254 0.0000 -0.0000 -15.0059 -15.9692 -19.7147 5.5139 7.1250 -0.0000 -0.0000 12.2923 -50.0187 -1.5412
-1.0249 15.7511 13.8900 0.0721 -4.5022 19.3689 0.0000 0.0000 0.0000 -17.0368 -19.2513 -33.3545 1.6443 8.0821 22.9638 0.0060 -4.7529 -3.5350 0.7903 -5.6747 -15.8435 0.0000 0.0000 0.0000 17.3960 19.8147 -21.1915 -6.4442 -14.8454 46.7393 -0.7326 1.9577 -15.6234 -2.1679 9.2073 -26.4461 -7.7526 0.3700 -14.4940 -4.3154 1.5781 -6.7476 0.0688 0.8800 0.8705 3.0513 -0.3403 -19.1597 6.3801 -2.8844 19.6003 1.3153 -0.3735 9.4477 -0.0000 -0.0000 0.0000 -73.2546 5.0553 28.8309 16.0108 -25.5352 -3.6506 -0.0000 0.0000 -42.3964 23.8690 -1.9057 -0.8430 -7.1250 0.0000 -0.0000 -2.0938 27.8940 0.8715 -0.0000 -0.0000 0.0000 86.3134 -19.0039 30.8682 -17.4953 27.5061 -4.3136 0.0000 -0.0000 -14.6282 -16.1830 -19.6484 5.5733 7.1250 -0.0000 -0.0000 12.0636 -49.9858 -1.5020
-1.0298 15.7422 13.8255 0.1294 -4.6782 19.2729 0.0000 0.0000 0.0000 -16.9967 -19.2574 -33.5390 1.6491 8.0933 22.9977 0.0025 -4.6141 -3.3214 0.8030 -5.7193 -15.9721 0.0000 0.0000 0.0000 17.5371 19.5503 -20.1540 -6.0219 -14.4495 45.0694 -0.8515 1.7522 -16.9317 -2.2683 9.4039 -27.0671 -7.4005 0.5728 -14.4932 -4.3952 1.7985 -6.7844 -0.1787 0.9831 0.8366 2.8963 -0.3997 -19.2168 6.3067 -2.9119 19.6739 1.3123 -0.4028 9.4836 -0.0000 0.0000 0.0000 -73.2738 5.5094 28.0926 15.5519 -24.9094 -3.4551 -0.0000 0.0000 -42.2331 23.8836 -1.7509 -0.7751 -7.1250 0.0000 -0.0000 -2.0841 28.0629 0.8592 -0.0000 0.0000 0.0000 86.2898 -18.3500 31.2279 -17.4619 27.4626 -4.2982 0.0000 -0.0000 -14.2297 -16.4230 -19.5932 5.6449 7.1250 -0.0000 -0.0000 11.8138 -49.9678 -1.4648
-1.0347 15.7347 13.7603 0.1794 -4.8691 19.1678 0.0000 0.0000 0.0000 -16.9531 -19.2543 -33.6860 1.6477 8.0902 22.9884 -0.0006 -4.4484 -3.0946 0.8183 -5.7721 -16.1247 0.0000 0.0000 0.0000 17.6642 19.2918 -19.1626 -5.6066 -14.0360 43.3818 -0.9728 1.4860 -18.2008 -2.2875 9.4409 -27.1845 -7.0216 0.7860 -14.4738 -4.4712 2.0272 -6.8242 -0.4364 1.0900 0.7935 2.7425 -0.4571 -19.2534 6.2111 -2.9296 19.7404 1.3027 -0.4309 9.5124 0.0000 0.0000 0.0000 -73.3035 5.9762 27.3250 15.1049 -24.2921 -3.2690 -0.0000 0.0000 -41.9975 23.8750 -1.6511 -0.7307 -7.1250 0.0000 -0.0000 -2.0919 28.1721 0.8570 0.0000 0.0000 0.0000 86.2781 -17.6812 31.5503 -17.4229 27.4120 -4.2802 0.0000 -0.0000 -13.8001 -16.6871 -19.5339 5.7237 7.1250 -0.0000 -0.0000 11.5396 -49.9495 -1.4247
